#!OML:ASF H:\Pregnant\Project 1\Capture day 1\Session 1\femalepreg.ASF
:FULLY-SPECIFIED
:DEGREES
530
root 10.3192 16.0124 -26.498 170.03 -81.6016 -145.757
lowerback -11.991 4.69015 11.8809
upperback -5.80204 4.45902 2.65614
thorax 1.23724 1.87732 -3.24164
lowerneck -13.9173 13.5875 13.1768
upperneck 17.7306 19.4349 -16.2207
head 11.0044 8.30004 -4.85795
rclavicle 4.69132e-014 4.13472e-014
rhumerus -13.3112 20.1431 -81.6476
rradius 52.6061
rwrist -23.9884
rhand -28.2074 -21.3084
rfingers 7.12502
rthumb -1.58622 -51.2823
lclavicle 4.69132e-014 4.13472e-014
lhumerus -47.516 -9.15079 78.3342
lradius 23.7999
lwrist 32.4053
lhand -28.296 -6.19964
lfingers 7.12502
lthumb -1.67181 23.7736
rfemur -28.7394 10.6604 16.3418
rtibia 32.8274
rfoot -17.6872 -10.0109
rtoes -33.6647
lfemur -58.3238 -1.11897 -24.3515
ltibia 39.4488
lfoot -7.28768 4.80024
ltoes -16.617
531
root 10.1858 16.0139 -26.5077 166.573 -81.7965 -142.152
lowerback -12.1781 4.7643 12.082
upperback -5.90377 4.52582 2.34809
thorax 1.27458 1.90418 -3.65645
lowerneck -14.128 13.5734 13.2447
upperneck 17.7728 19.3372 -16.031
head 11.0258 8.26674 -4.80859
rclavicle -3.00165e-014 -9.54166e-015
rhumerus -13.4187 20.3679 -82.0076
rradius 53.4558
rwrist -24.4633
rhand -28.5062 -21.2337
rfingers 7.12502
rthumb -1.87484 -51.2052
lclavicle -3.00165e-014 -9.54166e-015
lhumerus -47.9075 -8.95152 77.2891
lradius 24.0377
lwrist 32.5087
lhand -28.3618 -6.27421
lfingers 7.12502
lthumb -1.73533 23.6985
rfemur -27.8503 10.4766 16.8336
rtibia 32.0842
rfoot -17.4347 -9.86828
rtoes -34.2736
lfemur -58.3912 -1.26045 -23.9348
ltibia 38.1204
lfoot -7.15937 5.93296
ltoes -16.2247
532
root 10.0506 16.0126 -26.5177 162.819 -81.9798 -138.277
lowerback -12.3534 4.86734 12.3157
upperback -6.01692 4.63305 1.96558
thorax 1.30804 1.94992 -4.16285
lowerneck -14.3546 13.5179 13.3571
upperneck 17.8465 19.161 -15.7979
head 11.0481 8.20405 -4.76614
rclavicle 3.22031e-014 -1.59028e-015
rhumerus -13.6769 20.4192 -82.4384
rradius 54.3176
rwrist -24.829
rhand -28.8314 -21.114
rfingers 7.12502
rthumb -2.18887 -51.0825
lclavicle 3.22031e-014 -1.59028e-015
lhumerus -48.2576 -8.98893 76.2548
lradius 24.2907
lwrist 32.8896
lhand -28.4111 -6.22085
lfingers 7.12502
lthumb -1.78292 23.7514
rfemur -26.9435 10.2969 17.3372
rtibia 31.3785
rfoot -17.1786 -9.76278
rtoes -34.8696
lfemur -58.4217 -1.47904 -23.4703
ltibia 36.9108
lfoot -6.9498 7.16895
ltoes -15.7045
533
root 9.91356 16.0078 -26.5288 158.794 -82.149 -134.157
lowerback -12.5112 5.00108 12.5677
upperback -6.14375 4.78644 1.49464
thorax 1.33511 2.01738 -4.76776
lowerneck -14.6018 13.4208 13.5455
upperneck 17.9514 18.8949 -15.5102
head 11.0724 8.11033 -4.73325
rclavicle 4.96962e-015 -3.33958e-014
rhumerus -14.0779 20.24 -82.9606
rradius 55.1647
rwrist -25.0425
rhand -29.0931 -20.9719
rfingers 7.12502
rthumb -2.44164 -50.9376
lclavicle 4.96962e-015 -3.33958e-014
lhumerus -48.5425 -9.23318 75.1897
lradius 24.536
lwrist 33.448
lhand -28.4346 -6.07867
lfingers 7.12502
lthumb -1.80567 23.8934
rfemur -26.0356 10.1232 17.8489
rtibia 30.7467
rfoot -16.9308 -9.69468
rtoes -35.4229
lfemur -58.409 -1.72527 -23.0149
ltibia 35.8199
lfoot -6.63851 8.4666
ltoes -15.2442
534
root 9.77453 15.9999 -26.5403 154.659 -82.3116 -129.959
lowerback -12.6748 5.10807 12.7387
upperback -6.25593 4.91122 1.03795
thorax 1.37245 2.07333 -5.31863
lowerneck -14.8589 13.3175 13.656
upperneck 18.0525 18.6267 -15.1928
head 11.0855 8.01356 -4.67803
rclavicle 3.926e-015 1.35174e-014
rhumerus -14.557 20.0657 -83.4585
rradius 56.0074
rwrist -25.1355
rhand -29.2404 -20.8206
rfingers 7.12502
rthumb -2.58393 -50.7847
lclavicle 3.926e-015 1.35174e-014
lhumerus -48.7659 -9.40249 74.1263
lradius 24.7358
lwrist 34.0964
lhand -28.4004 -5.89515
lfingers 7.12502
lthumb -1.77266 24.0772
rfemur -25.1389 9.9459 18.3415
rtibia 30.2166
rfoot -16.6899 -9.67693
rtoes -36.0107
lfemur -58.3409 -1.98416 -22.6176
ltibia 34.8475
lfoot -6.21683 9.7725
ltoes -14.7838
535
root 9.63397 15.9888 -26.5522 150.505 -82.4718 -125.759
lowerback -12.8693 5.1607 12.7819
upperback -6.34348 4.9703 0.632874
thorax 1.43011 2.1013 -5.75446
lowerneck -15.1162 13.2329 13.6505
upperneck 18.1265 18.4009 -14.8488
head 11.0811 7.93195 -4.58701
rclavicle 1.75427e-014 2.78299e-014
rhumerus -15.0786 19.9853 -83.9041
rradius 56.84
rwrist -25.1059
rhand -29.2236 -20.68
rfingers 7.12502
rthumb -2.56761 -50.6443
lclavicle 1.75427e-014 2.78299e-014
lhumerus -48.915 -9.29546 73.0139
lradius 24.8554
lwrist 34.7105
lhand -28.2511 -5.69209
lfingers 7.12502
lthumb -1.62841 24.2814
rfemur -24.2906 9.76173 18.7999
rtibia 29.8171
rfoot -16.4605 -9.69392
rtoes -36.6053
lfemur -58.2373 -2.18878 -22.3554
ltibia 34.0005
lfoot -5.66869 10.9729
ltoes -14.3729
536
root 9.49134 15.9751 -26.5643 146.313 -82.6225 -121.547
lowerback -13.1074 5.13361 12.6664
upperback -6.3828 4.93019 0.32235
thorax 1.52634 2.08776 -6.01618
lowerneck -15.3736 13.187 13.4943
upperneck 18.1494 18.2551 -14.4865
head 11.054 7.87988 -4.45013
rclavicle -3.01159e-014 -3.97569e-016
rhumerus -15.6038 20.0818 -84.2702
rradius 57.6515
rwrist -24.9622
rhand -29.0354 -20.5473
rfingers 7.12502
rthumb -2.38585 -50.5137
lclavicle -3.01159e-014 -3.97569e-016
lhumerus -48.9965 -8.79319 71.8516
lradius 24.8871
lwrist 35.2398
lhand -28.0993 -5.45712
lfingers 7.12502
lthumb -1.48184 24.5175
rfemur -23.483 9.56993 19.2313
rtibia 29.5577
rfoot -16.2343 -9.73514
rtoes -37.2483
lfemur -58.096 -2.29831 -22.2539
ltibia 33.3115
lfoot -4.97424 11.9434
ltoes -13.8095
537
root 9.34697 15.959 -26.577 142.04 -82.7619 -117.283
lowerback -13.3724 5.03078 12.399
upperback -6.38992 4.80107 0.0870147
thorax 1.63839 2.0353 -6.12764
lowerneck -15.6007 13.1769 13.2679
upperneck 18.1165 18.1761 -14.131
head 11.0058 7.85613 -4.29314
rclavicle -2.93207e-015 1.23246e-014
rhumerus -16.1658 20.3202 -84.5978
rradius 58.4421
rwrist -24.7128
rhand -28.7779 -20.3787
rfingers 7.12502
rthumb -2.13721 -50.3477
lclavicle -2.93207e-015 1.23246e-014
lhumerus -49.0522 -8.03024 70.6812
lradius 24.8496
lwrist 35.7746
lhand -28.0663 -5.19882
lfingers 7.12502
lthumb -1.44991 24.776
rfemur -22.724 9.37891 19.6423
rtibia 29.4518
rfoot -16.0018 -9.79937
rtoes -37.955
lfemur -57.9329 -2.28142 -22.3369
ltibia 32.8325
lfoot -4.08268 12.5481
ltoes -12.858
538
root 9.20061 15.9415 -26.5899 137.71 -82.8729 -112.993
lowerback -13.6439 4.89321 12.0384
upperback -6.37807 4.638 -0.136624
thorax 1.76116 1.96899 -6.18067
lowerneck -15.8035 13.1799 13.067
upperneck 18.0459 18.1068 -13.7686
head 10.9432 7.84242 -4.13714
rclavicle -2.00276e-014 -9.93923e-016
rhumerus -16.8029 20.5679 -84.951
rradius 59.2116
rwrist -24.3558
rhand -28.4524 -20.1762
rfingers 7.12502
rthumb -1.82283 -50.1482
lclavicle -2.00276e-014 -9.93923e-016
lhumerus -49.0676 -7.17993 69.4917
lradius 24.7535
lwrist 36.3572
lhand -28.1084 -4.85034
lfingers 7.12502
lthumb -1.49065 25.1242
rfemur -22.0139 9.18238 20.0438
rtibia 29.5003
rfoot -15.7579 -9.85118
rtoes -38.7007
lfemur -57.7559 -2.10477 -22.5885
ltibia 32.6319
lfoot -3.16996 12.6347
ltoes -11.2532
539
root 9.0524 15.9222 -26.603 133.347 -82.9548 -108.699
lowerback -13.8996 4.82282 11.648
upperback -6.35714 4.57368 -0.38932
thorax 1.90498 1.95358 -6.23078
lowerneck -16.0608 13.0891 12.6647
upperneck 17.9805 17.9174 -13.2752
head 10.8403 7.77274 -3.92791
rclavicle -2.20403e-014 2.65129e-014
rhumerus -17.5663 20.5748 -85.2141
rradius 59.9706
rwrist -23.8928
rhand -28.1131 -19.9288
rfingers 7.12502
rthumb -1.49516 -49.9033
lclavicle -2.20403e-014 2.65129e-014
lhumerus -48.9451 -6.47706 68.4321
lradius 24.5722
lwrist 36.9659
lhand -28.3235 -4.49714
lfingers 7.12502
lthumb -1.69834 25.4758
rfemur -21.3677 8.97912 20.4344
rtibia 29.7216
rfoot -15.4947 -9.87297
rtoes -39.4642
lfemur -57.5671 -1.79256 -22.9877
ltibia 32.7556
lfoot -2.42443 12.2139
ltoes -9.07341
540
root 8.90287 15.9023 -26.6158 128.977 -83.0155 -104.416
lowerback -14.1426 4.80623 11.2192
upperback -6.32838 4.59031 -0.652065
thorax 2.06424 1.97973 -6.25506
lowerneck -16.357 12.9084 12.0253
upperneck 17.9064 17.6276 -12.6591
head 10.6931 7.65428 -3.66033
rclavicle 2.51587e-014 2.88238e-015
rhumerus -18.4453 20.4069 -85.3704
rradius 60.7235
rwrist -23.3447
rhand -27.752 -19.656
rfingers 7.12502
rthumb -1.14641 -49.6327
lclavicle 2.51587e-014 2.88238e-015
lhumerus -48.6934 -5.83991 67.5007
lradius 24.2979
lwrist 37.5617
lhand -28.7457 -4.17504
lfingers 7.12502
lthumb -2.1061 25.7943
rfemur -20.8138 8.75869 20.8054
rtibia 30.1362
rfoot -15.1981 -9.85138
rtoes -40.2433
lfemur -57.3912 -1.42157 -23.4497
ltibia 33.2154
lfoot -2.01826 11.3929
ltoes -6.21959
541
root 8.75231 15.8822 -26.6278 124.627 -83.066 -100.159
lowerback -14.3591 4.86216 10.7839
upperback -6.31453 4.71481 -1.00923
thorax 2.22012 2.05799 -6.35756
lowerneck -16.6663 12.641 11.3771
upperneck 17.8288 17.2005 -11.955
head 10.5243 7.48356 -3.38779
rclavicle -4.54471e-014 -1.98785e-014
rhumerus -19.468 19.9226 -85.558
rradius 61.4517
rwrist -22.6866
rhand -27.3549 -19.3656
rfingers 7.12502
rthumb -0.762863 -49.344
lclavicle -4.54471e-014 -1.98785e-014
lhumerus -48.2955 -5.43431 66.6308
lradius 23.9541
lwrist 38.179
lhand -29.2817 -3.84741
lfingers 7.12502
lthumb -2.62373 26.1162
rfemur -20.3906 8.51427 21.142
rtibia 30.7877
rfoot -14.8578 -9.77744
rtoes -41.0526
lfemur -57.2417 -1.09345 -23.8859
ltibia 33.9605
lfoot -2.00119 10.3678
ltoes -3.08771
542
root 8.60104 15.8625 -26.6391 120.211 -83.1226 -95.849
lowerback -14.5526 4.94882 10.2847
upperback -6.29875 4.89553 -1.39731
thorax 2.37421 2.16453 -6.44631
lowerneck -16.9695 12.3046 10.6498
upperneck 17.7195 16.6888 -11.2019
head 10.3285 7.27678 -3.10341
rclavicle 2.37796e-014 3.97569e-016
rhumerus -20.5947 19.2613 -85.7159
rradius 62.1539
rwrist -21.9484
rhand -26.9387 -19.077
rfingers 7.12502
rthumb -0.360839 -49.0565
lclavicle 2.37796e-014 3.97569e-016
lhumerus -47.7562 -4.99618 65.788
lradius 23.5042
lwrist 38.6419
lhand -29.8656 -3.47283
lfingers 7.12502
lthumb -3.18767 26.4831
rfemur -20.1187 8.22397 21.4331
rtibia 31.7149
rfoot -14.4585 -9.64762
rtoes -41.9211
lfemur -57.1104 -0.891862 -24.2361
ltibia 34.9012
lfoot -2.32817 9.35806
ltoes -0.0907728
543
root 8.44983 15.8424 -26.6496 115.601 -83.1957 -91.3413
lowerback -14.7503 4.98309 9.66244
upperback -6.26861 5.02495 -1.77178
thorax 2.52587 2.24665 -6.45921
lowerneck -17.2352 11.9864 9.98773
upperneck 17.5526 16.2037 -10.5002
head 10.1295 7.08473 -2.84309
rclavicle -6.63444e-014 -1.35174e-014
rhumerus -21.7669 18.6294 -85.9022
rradius 62.8136
rwrist -21.1612
rhand -26.5141 -18.8041
rfingers 7.12502
rthumb 0.0492244 -48.7838
lclavicle -6.63444e-014 -1.35174e-014
lhumerus -47.1631 -4.4255 64.9591
lradius 22.9756
lwrist 38.9736
lhand -30.5311 -3.05347
lfingers 7.12502
lthumb -3.83037 26.8918
rfemur -20.0442 7.86296 21.6681
rtibia 32.962
rfoot -13.993 -9.42624
rtoes -42.763
lfemur -56.9982 -0.858705 -24.4868
ltibia 35.9217
lfoot -2.86684 8.5108
ltoes 2.2975
544
root 8.29879 15.822 -26.6595 110.697 -83.2843 -86.5505
lowerback -14.9428 4.93597 8.90457
upperback -6.20627 5.06792 -2.11632
thorax 2.6799 2.28772 -6.37871
lowerneck -17.4789 11.7168 9.40368
upperneck 17.3248 15.7839 -9.85791
head 9.93294 6.92425 -2.6041
rclavicle -5.24295e-014 -1.19271e-014
rhumerus -22.9519 18.1051 -86.1327
rradius 63.4231
rwrist -20.355
rhand -26.1217 -18.5607
rfingers 7.12502
rthumb 0.428216 -48.54
lclavicle -5.24295e-014 -1.19271e-014
lhumerus -46.5342 -3.60873 64.0958
lradius 22.3689
lwrist 39.0981
lhand -31.1834 -2.50719
lfingers 7.12502
lthumb -4.46026 27.4258
rfemur -20.1725 7.41157 21.8437
rtibia 34.5546
rfoot -13.4476 -9.07757
rtoes -43.5048
lfemur -56.8733 -0.96197 -24.6724
ltibia 36.9254
lfoot -3.49723 7.81864
ltoes 3.88919
